
<svg xmlns="http://www.w3.org/2000/svg"  width="30" height="30" x="0" y="0" viewBox="0 0 511 512" style="enable-background:new 0 0 512 512" xml:space="preserve" class=""><g><path xmlns="http://www.w3.org/2000/svg" d="m210.5 273.105469v87.445312l29.253906-76.214843zm0 0" data-original="#000000" style="" class=""/><path xmlns="http://www.w3.org/2000/svg" d="m210.5 144.570312v96.402344l40.007812 15.355469 32.25-84.019531zm0 0"  data-original="#000000" style="" class=""/><path xmlns="http://www.w3.org/2000/svg" d="m311.761719 54.902344-101.261719-38.871094v96.402344l83.011719 31.867187 26.878906-70.019531c2.964844-7.734375-.898437-16.410156-8.628906-19.378906zm0 0"  data-original="#000000" style="" class=""/><path xmlns="http://www.w3.org/2000/svg" d="m224.515625 407.660156 54.609375-60.648437-23.28125-20.964844zm0 0" data-original="#000000" style="" class=""/><path xmlns="http://www.w3.org/2000/svg" d="m301.90625 206.046875-34.546875 90 31.839844 28.667969 60.21875-66.882813zm0 0"  data-original="#000000" style="" class=""/><path xmlns="http://www.w3.org/2000/svg" d="m428.566406 158.617188-80.597656-72.570313-34.546875 90 66.070313 59.492187 50.1875-55.734374c5.542968-6.160157 5.042968-15.644532-1.113282-21.1875zm0 0"  data-original="#000000" style="" class=""/><path xmlns="http://www.w3.org/2000/svg" d="m220.789062 456.632812 72.730469-37.058593-14.226562-27.917969zm0 0"  data-original="#000000" style="" class=""/><path xmlns="http://www.w3.org/2000/svg" d="m300.796875 367.773438 19.453125 38.179687 80.191406-40.859375-35.140625-68.960938zm0 0"  data-original="#000000" style="" class=""/><path xmlns="http://www.w3.org/2000/svg" d="m500.550781 297.25-49.242187-96.636719-64.503906 71.640625 40.367187 79.222656 66.824219-34.050781c7.378906-3.761719 10.316406-12.792969 6.554687-20.175781zm0 0"  data-original="#000000" style="" class=""/><path xmlns="http://www.w3.org/2000/svg" d="m165.5 0h-150c-8.285156 0-15 6.714844-15 15v407c0 49.625 40.375 90 90 90 49.628906 0 90-40.375 90-90v-407c0-8.285156-6.714844-15-15-15zm-56.222656 436.78125c-4.652344 4.652344-11.105469 7.335938-17.671875 7.335938-6.585938 0-13.039063-2.683594-17.691407-7.335938-4.652343-4.652344-7.320312-11.085938-7.320312-17.671875s2.667969-13.039063 7.320312-17.691406c4.652344-4.652344 11.105469-7.316407 17.691407-7.316407 6.566406 0 13.019531 2.667969 17.671875 7.316407 4.652344 4.652343 7.316406 11.105469 7.316406 17.691406s-2.667969 13.019531-7.316406 17.671875zm0 0"  data-original="#000000" style="" class=""/></g></svg>
