<svg xmlns="http://www.w3.org/2000/svg" x="0px" y="0px"
width="50" height="50"
viewBox="0 0 172 172"
style=" fill:#000000;"><g fill="none" fill-rule="nonzero" stroke="none" stroke-width="1" stroke-linecap="butt" stroke-linejoin="miter" stroke-miterlimit="10" stroke-dasharray="" stroke-dashoffset="0" font-family="none" font-weight="none" font-size="none" text-anchor="none" style="mix-blend-mode: normal"><path d="M0,172v-172h172v172z" fill="none"></path><g fill="#ffffff"><path d="M86,6.88c-43.65844,0 -79.12,35.46156 -79.12,79.12c0,43.65844 35.46156,79.12 79.12,79.12c43.65844,0 79.12,-35.46156 79.12,-79.12c0,-43.65844 -35.46156,-79.12 -79.12,-79.12zM86,13.76c39.93625,0 72.24,32.30375 72.24,72.24c0,39.93625 -32.30375,72.24 -72.24,72.24c-39.93625,0 -72.24,-32.30375 -72.24,-72.24c0,-39.93625 32.30375,-72.24 72.24,-72.24zM61.92,45.58v80.84l5.16,-3.01l58.48,-34.4l5.0525,-3.01l-5.0525,-3.01l-58.48,-34.4zM68.8,57.62l48.16,28.38l-48.16,28.38z"></path></g></g></svg>