<svg xmlns="http://www.w3.org/2000/svg" x="0px" y="0px"
width="52" height="52"
viewBox="0 0 172 172"
style=" fill:#000000;"><g fill="none" fill-rule="nonzero" stroke="none" stroke-width="1" stroke-linecap="butt" stroke-linejoin="miter" stroke-miterlimit="10" stroke-dasharray="" stroke-dashoffset="0" font-family="none" font-weight="none" font-size="none" text-anchor="none" style="mix-blend-mode: normal"><path d="M0,172v-172h172v172z" fill="none"></path><g fill="#ffffff"><path d="M86,6.88c-43.6552,0 -79.12,35.4648 -79.12,79.12c0,43.6552 35.4648,79.12 79.12,79.12c43.6552,0 79.12,-35.4648 79.12,-79.12c0,-43.6552 -35.4648,-79.12 -79.12,-79.12zM86,13.76c39.9368,0 72.24,32.3032 72.24,72.24c0,39.9368 -32.3032,72.24 -72.24,72.24c-39.9368,0 -72.24,-32.3032 -72.24,-72.24c0,-39.9368 32.3032,-72.24 72.24,-72.24zM55.04,55.04v3.44v58.48h61.92v-61.92zM61.92,61.92h48.16v48.16h-48.16z"></path></g></g></svg>