<svg xmlns="http://www.w3.org/2000/svg" x="0px" y="0px"
width="50" height="50"
viewBox="0 0 172 172"
style=" fill:#000000;"><g fill="none" fill-rule="nonzero" stroke="none" stroke-width="1" stroke-linecap="butt" stroke-linejoin="miter" stroke-miterlimit="10" stroke-dasharray="" stroke-dashoffset="0" font-family="none" font-weight="none" font-size="none" text-anchor="none" style="mix-blend-mode: normal"><path d="M0,172v-172h172v172z" fill="none"></path><g fill="#ffffff"><path d="M86,8.0625c-20.82812,0 -40.44687,8.0625 -55.09375,22.84375c-15.18437,15.18437 -22.84375,35.07188 -22.84375,55.09375c0,20.02188 7.65937,39.90937 22.84375,55.09375c14.78125,14.78125 34.26563,22.84375 55.09375,22.84375c20.82813,0 40.44687,-8.0625 55.09375,-22.84375c30.36875,-30.36875 30.36875,-79.81875 0,-110.1875c-14.64688,-14.78125 -34.26562,-22.84375 -55.09375,-22.84375zM86,16.125c18.67813,0 36.14792,7.2552 49.45105,20.42395c13.57188,13.70625 20.42395,31.57917 20.42395,49.45105c0,17.87188 -6.85208,35.7448 -20.42395,49.45105c-13.30312,13.16875 -30.77292,20.42395 -49.45105,20.42395c-18.67812,0 -36.14792,-7.2552 -49.45105,-20.42395c-27.14375,-27.27812 -27.14375,-71.62397 0,-98.9021c13.30312,-13.16875 30.77292,-20.42395 49.45105,-20.42395zM85.95013,55.09375c-1.02461,0 -2.03242,0.40365 -2.77148,1.2099l-20.15625,20.15625c-0.80625,0.80625 -1.2099,1.74635 -1.2099,2.82135c0,1.075 0.40365,2.0151 1.2099,2.82135c1.6125,1.6125 4.16457,1.6125 5.6427,0l13.30365,-13.30365v41.38855c0,2.28437 1.74688,4.03125 4.03125,4.03125c2.28437,0 4.03125,-1.74688 4.03125,-4.03125v-41.38855l13.30365,13.30365c1.6125,1.6125 4.16457,1.6125 5.6427,0c1.6125,-1.6125 1.6125,-4.16457 0,-5.6427l-20.15625,-20.15625c-0.80625,-0.80625 -1.84661,-1.2099 -2.87121,-1.2099z"></path></g></g></svg>