<svg xmlns="http://www.w3.org/2000/svg" x="0px" y="0px"
width="128" height="128"
viewBox="0 0 172 172"
style=" fill:#000000;"><g fill="none" fill-rule="nonzero" stroke="none" stroke-width="1" stroke-linecap="butt" stroke-linejoin="miter" stroke-miterlimit="10" stroke-dasharray="" stroke-dashoffset="0" font-family="none" font-weight="none" font-size="none" text-anchor="none" style="mix-blend-mode: normal"><path d="M0,172v-172h172v172z" fill="none"></path><g fill="#ffffff"><path d="M5.375,1.34375c-1.04141,0 -2.08229,0.40365 -2.82135,1.2099c-1.6125,1.6125 -1.6125,4.16458 0,5.6427l12.4953,12.63177c0.80625,0.80625 1.88335,1.2099 2.82397,1.2099c0.94063,0 2.0151,-0.40365 2.82135,-1.2099c1.6125,-1.6125 1.6125,-4.16458 0,-5.6427l-12.49793,-12.63177c-0.73906,-0.80625 -1.77994,-1.2099 -2.82135,-1.2099zM32.25,1.34375c-2.2264,0 -4.03125,1.80485 -4.03125,4.03125c0,2.2264 1.80485,4.03125 4.03125,4.03125c2.2264,0 4.03125,-1.80485 4.03125,-4.03125c0,-2.2264 -1.80485,-4.03125 -4.03125,-4.03125zM166.625,1.34375c-1.04141,0 -2.08229,0.40365 -2.82135,1.2099l-10.75,10.75c-1.6125,1.6125 -1.6125,4.16457 0,5.6427c0.80625,0.80625 1.88073,1.2099 2.82135,1.2099c0.94063,0 2.0151,-0.40365 2.82135,-1.2099l10.75,-10.75c1.6125,-1.6125 1.6125,-4.16458 0,-5.6427c-0.73906,-0.80625 -1.77994,-1.2099 -2.82135,-1.2099zM64.51312,6.13348c-1.36685,-0.0126 -2.73422,0.18214 -4.04437,0.58527c-3.49375,1.20938 -6.45053,3.76302 -7.92865,7.25678c-0.94063,2.01563 -0.00052,4.4349 2.14948,5.24115c1.74687,0.94063 4.03282,-0.0021 4.97345,-2.1521c0.5375,-1.34375 1.61093,-2.28385 3.08905,-2.82135c1.34375,-0.40312 2.82188,-0.2677 4.03125,0.40418l12.49792,7.39062c4.03125,2.41875 9.13803,2.41875 13.30365,0l12.4953,-7.39062c1.20938,-0.67187 2.6875,-0.94168 4.03125,-0.40418c1.34375,0.40313 2.4198,1.4776 3.09167,2.82135l5.77917,13.30365c0.67188,1.47812 2.14843,2.4198 3.76093,2.4198c0.5375,0 1.07657,-0.13543 1.61407,-0.40418c2.01563,-0.94062 2.95573,-3.22552 2.14948,-5.24115l-5.77918,-13.30103c-1.47812,-3.35937 -4.4349,-6.04792 -7.92865,-7.12292c-3.49375,-1.075 -7.38853,-0.67135 -10.61353,1.2099l-12.49792,7.39063c-1.6125,0.94062 -3.4948,0.94062 -5.1073,0l-12.4953,-7.39063c-2.01562,-1.17578 -4.2937,-1.77417 -6.57178,-1.79517zM35.50439,30.89575c-0.27059,-0.02625 -0.54905,-0.0231 -0.8346,0.0105l-6.71875,0.67188c-3.7625,0.40312 -7.25625,2.41875 -9.40625,5.375c-2.15,3.09063 -2.95835,6.85417 -2.1521,10.4823c0.40312,1.88125 2.01615,3.2229 3.8974,3.2229c0.26875,0 0.53907,0.00052 0.9422,-0.13385c2.15,-0.5375 3.49218,-2.68697 3.08905,-4.83697c-0.26875,-1.47812 -0.00052,-2.82187 0.80573,-4.03125c0.80625,-1.20938 2.15157,-1.88125 3.6297,-2.01562l6.71875,-0.67187c2.15,-0.26875 3.89582,-2.15105 3.62707,-4.43542c-0.23516,-1.88125 -1.7041,-3.45386 -3.59821,-3.63757zM143.3482,31.56238c-1.89411,0.15983 -3.36304,1.64399 -3.5982,3.64282c-0.26875,2.15 1.3427,4.16667 3.62708,4.43542c1.47813,0.13437 2.68907,0.80625 3.6297,2.01563c0.80625,1.20938 1.20885,2.55313 0.80573,4.03125l-3.09167,14.24322c-1.075,4.56875 0.5375,9.40678 4.03125,12.63178l10.88647,9.67395c1.075,0.94062 1.7453,2.28542 1.7453,3.76355c0,1.47812 -0.53593,2.82292 -1.7453,3.76355l-10.88647,9.67395c-3.49375,3.09063 -5.10625,7.92865 -4.03125,12.63178l3.09167,14.24322c0.26875,1.47812 0.00052,2.82188 -0.80573,4.03125c-0.94063,1.075 -2.15157,1.88125 -3.6297,2.01563c-2.15,0.26875 -3.89583,2.15105 -3.62708,4.43542c0.13438,2.15 2.01563,3.62708 4.03125,3.62708h0.40417c3.7625,-0.40312 7.11978,-2.28438 9.26978,-5.375c2.15,-3.09062 2.95835,-6.85417 2.1521,-10.4823l-3.09167,-14.24323c-0.40312,-1.74687 0.2677,-3.6276 1.61145,-4.83697l10.88647,-9.67395c2.82188,-2.41875 4.4328,-6.04792 4.4328,-9.81042c0,-3.7625 -1.61093,-7.2573 -4.4328,-9.81042l-10.88647,-9.67395c-1.34375,-1.20937 -2.01458,-3.0901 -1.61145,-4.83697l3.09167,-14.24323c0.80625,-3.62813 -0.0021,-7.52605 -2.1521,-10.4823c-2.15,-3.09063 -5.64165,-4.97188 -9.26978,-5.375c-0.28555,-0.03359 -0.56663,-0.03858 -0.83722,-0.01575zM86,40.3125c-25.2625,0 -45.6875,20.425 -45.6875,45.6875c0,25.2625 20.425,45.6875 45.6875,45.6875c25.2625,0 45.6875,-20.425 45.6875,-45.6875c0,-25.2625 -20.425,-45.6875 -45.6875,-45.6875zM86,49.71875c2.28437,0 4.03125,1.74687 4.03125,4.03125c0,2.28438 -1.74688,4.03125 -4.03125,4.03125c-1.74688,0 -3.62812,0.1349 -5.375,0.53803c-0.26875,0 -0.53697,0.13385 -0.80572,0.13385c-1.88125,0 -3.62865,-1.34428 -3.8974,-3.22553c-0.40313,-2.28438 0.94167,-4.43385 3.09167,-4.83697c2.28438,-0.40312 4.5677,-0.67187 6.98645,-0.67187zM23.24268,56.76819c-0.2656,-0.00236 -0.53435,0.0231 -0.8031,0.07349c-2.15,0.5375 -3.49218,2.68698 -3.08905,4.83698c0.40312,1.74688 -0.27032,3.6276 -1.61407,4.83697l-10.88385,9.67395c-2.6875,2.55312 -4.29895,6.04792 -4.29895,9.81042c0,3.7625 1.61093,7.2573 4.4328,9.81042l10.88647,9.67395c1.34375,1.20938 2.01458,3.0901 1.61145,4.83697l-3.09167,14.24323c-0.80625,3.62813 0.0021,7.52605 2.1521,10.4823c2.15,3.09062 5.64165,4.97188 9.26978,5.375l14.51355,1.34375c1.74687,0.13438 3.35885,1.3427 4.1651,2.9552l5.77918,13.30365c0.67188,1.47813 2.14843,2.4198 3.76093,2.4198c0.5375,0 1.07657,-0.13542 1.61407,-0.40417c2.01563,-0.94063 2.95572,-3.22552 2.14947,-5.24115l-5.77917,-13.30103c-1.88125,-4.3 -6.04687,-7.39167 -10.75,-7.7948l-14.51093,-1.34375c-1.47812,-0.13438 -2.68907,-0.80625 -3.6297,-2.01562c-0.94063,-1.20937 -1.20833,-2.6875 -0.93958,-4.03125l3.09167,-14.24322c1.075,-4.56875 -0.5375,-9.40678 -4.03125,-12.63178l-10.88647,-9.67395c-1.075,-0.94062 -1.7453,-2.28542 -1.7453,-3.76355c0,-1.47813 0.53593,-2.82292 1.7453,-3.76355l10.88647,-9.67395c3.49375,-3.09063 5.10625,-7.92865 4.03125,-12.63178c-0.47031,-1.88125 -2.17729,-3.146 -4.0365,-3.16254zM59.1145,64.15619c0.78814,0.00315 1.58835,0.24408 2.29382,0.74798c1.88125,1.20937 2.4198,3.76145 1.07605,5.6427c-3.09062,4.56875 -4.70312,9.94375 -4.70312,15.45313c0,7.525 2.9552,14.64792 8.3302,19.88855c1.6125,1.6125 1.6125,4.16458 0,5.6427c-0.80625,0.94062 -1.8802,1.34375 -2.9552,1.34375c-1.075,0 -2.0151,-0.40365 -2.82135,-1.2099c-6.85313,-6.85312 -10.61615,-15.9901 -10.61615,-25.6651c0,-7.12188 2.01563,-14.1099 6.04688,-20.0224c0.75586,-1.17578 2.03531,-1.82666 3.34888,-1.82141zM121.7616,139.11486c-1.48022,-0.03779 -2.93998,0.87134 -3.64545,2.38306l-5.77918,13.30103c-0.5375,1.34375 -1.61093,2.28647 -3.08905,2.82397c-1.34375,0.40312 -2.82187,0.2677 -4.03125,-0.40417l-12.49792,-7.39062c-4.03125,-2.41875 -9.13803,-2.41875 -13.30365,0l-12.4953,7.39063c-1.88125,1.075 -2.55522,3.6276 -1.48022,5.50885c1.075,1.88125 3.63022,2.5526 5.51147,1.4776l12.4953,-7.39062c1.6125,-0.94063 3.4948,-0.94063 5.1073,0l12.4953,7.39063c2.01563,1.20937 4.30052,1.74792 6.5849,1.74792c1.34375,0 2.6875,-0.26875 4.03125,-0.67187c3.49375,-1.20937 6.45053,-3.76302 7.92865,-7.25677l5.77917,-13.30365c0.94063,-2.01562 -0.0021,-4.43228 -2.1521,-5.23853c-0.47031,-0.23516 -0.96582,-0.35483 -1.45923,-0.36744zM152.33191,148.48438c-1.02461,0 -2.03242,0.40365 -2.77148,1.2099c-1.6125,1.6125 -1.6125,4.16458 0,5.6427l14.24323,14.10938c0.80625,0.80625 1.74635,1.2099 2.82135,1.2099c1.075,0 2.0151,-0.40365 2.82135,-1.2099c1.6125,-1.6125 1.6125,-4.16458 0,-5.6427l-14.24323,-14.10937c-0.80625,-0.80625 -1.84661,-1.2099 -2.87122,-1.2099z"></path></g></g></svg>