<svg xmlns="http://www.w3.org/2000/svg" x="0px" y="0px"
width="128" height="128"
viewBox="0 0 172 172"
style=" fill:#000000;"><g fill="none" fill-rule="nonzero" stroke="none" stroke-width="1" stroke-linecap="butt" stroke-linejoin="miter" stroke-miterlimit="10" stroke-dasharray="" stroke-dashoffset="0" font-family="none" font-weight="none" font-size="none" text-anchor="none" style="mix-blend-mode: normal"><path d="M0,172v-172h172v172z" fill="none"></path><g fill="#ffffff"><path d="M136.39063,48.375c-14.64688,0 -27.81562,9.40625 -32.51875,23.24688c-0.67187,2.15 0.40312,4.43437 2.55312,5.10625c2.15,0.67188 4.43438,-0.40312 5.10625,-2.55312c3.62812,-10.61563 13.57187,-17.7375 24.85938,-17.7375c14.5125,0 26.20313,11.69062 26.20313,26.20313c0,14.5125 -11.69063,26.20313 -26.20312,26.20313h-80.625c-25.53125,0 -46.35937,-20.82812 -46.35937,-46.35937c0,-25.53125 20.82813,-46.35937 46.35938,-46.35937c18.67812,0 35.34063,11.01875 42.59688,28.21875c0.80625,2.01563 3.225,2.95625 5.24063,2.15c2.01563,-0.80625 2.95625,-3.225 2.15,-5.24062c-8.46562,-20.15625 -28.08437,-33.19063 -49.9875,-33.19063c-29.96562,0 -54.42187,24.45625 -54.42187,54.42188c0,29.96563 24.45625,54.42188 54.42188,54.42188h80.625c18.94688,0 34.26563,-15.31875 34.26563,-34.26562c0,-18.94687 -15.31875,-34.26562 -34.26562,-34.26562z"></path></g></g></svg>