<?xml version="1.0" encoding="UTF-8"?>
<svg xmlns="http://www.w3.org/2000/svg" xmlns:xlink="http://www.w3.org/1999/xlink" width="30" height="30" viewBox="0 0 64 64" version="1.1">
<g id="surface2846283">
<path style=" stroke:none;fill-rule:nonzero;fill:rgb(100%,100%,100%);fill-opacity:1;" d="M 16 3 C 12.398438 3 9.5 5.898438 9.5 9.5 L 9.5 13 L 8.5 13 C 6.300781 13 4.5 14.800781 4.5 17 C 4.5 19.199219 6.300781 21 8.5 21 L 9.5 21 L 9.5 43 L 8.5 43 C 6.300781 43 4.5 44.800781 4.5 47 C 4.5 49.199219 6.300781 51 8.5 51 L 9.5 51 L 9.5 54.5 C 9.5 58.101562 12.398438 61 16 61 L 53 61 C 56.601562 61 59.5 58.101562 59.5 54.5 L 59.5 9.5 C 59.5 5.898438 56.601562 3 53 3 Z M 16 6 L 53 6 C 54.949219 6 56.5 7.550781 56.5 9.5 L 56.5 54.5 C 56.5 56.449219 54.949219 58 53 58 L 16 58 C 14.050781 58 12.5 56.449219 12.5 54.5 L 12.5 51 L 13.5 51 C 15.699219 51 17.5 49.199219 17.5 47 C 17.5 46.148438 16.851562 45.5 16 45.5 C 15.148438 45.5 14.5 46.148438 14.5 47 C 14.5 47.550781 14.050781 48 13.5 48 L 8.5 48 C 7.949219 48 7.5 47.550781 7.5 47 C 7.5 46.449219 7.949219 46 8.5 46 L 11 46 C 11.851562 46 12.5 45.351562 12.5 44.5 L 12.5 21 L 13.5 21 C 15.699219 21 17.5 19.199219 17.5 17 C 17.5 16.148438 16.851562 15.5 16 15.5 C 15.148438 15.5 14.5 16.148438 14.5 17 C 14.5 17.550781 14.050781 18 13.5 18 L 8.5 18 C 7.949219 18 7.5 17.550781 7.5 17 C 7.5 16.449219 7.949219 16 8.5 16 L 11 16 C 11.851562 16 12.5 15.351562 12.5 14.5 L 12.5 9.5 C 12.5 7.550781 14.050781 6 16 6 Z M 22 9.5 C 21.148438 9.5 20.5 10.148438 20.5 11 L 20.5 53 C 20.5 53.851562 21.148438 54.5 22 54.5 C 22.851562 54.5 23.5 53.851562 23.5 53 L 23.5 11 C 23.5 10.148438 22.851562 9.5 22 9.5 Z M 30.5 16.5 C 29.648438 16.5 29 17.148438 29 18 C 29 18.851562 29.648438 19.5 30.5 19.5 L 48 19.5 C 48.851562 19.5 49.5 18.851562 49.5 18 C 49.5 17.148438 48.851562 16.5 48 16.5 Z M 30.5 24 C 29.648438 24 29 24.648438 29 25.5 C 29 26.351562 29.648438 27 30.5 27 L 48 27 C 48.851562 27 49.5 26.351562 49.5 25.5 C 49.5 24.648438 48.851562 24 48 24 Z M 30.5 31.5 C 29.648438 31.5 29 32.148438 29 33 C 29 33.851562 29.648438 34.5 30.5 34.5 L 48 34.5 C 48.851562 34.5 49.5 33.851562 49.5 33 C 49.5 32.148438 48.851562 31.5 48 31.5 Z M 30.5 39 C 29.648438 39 29 39.648438 29 40.5 C 29 41.351562 29.648438 42 30.5 42 L 48 42 C 48.851562 42 49.5 41.351562 49.5 40.5 C 49.5 39.648438 48.851562 39 48 39 Z M 30.5 46.5 C 29.648438 46.5 29 47.148438 29 48 C 29 48.851562 29.648438 49.5 30.5 49.5 L 48 49.5 C 48.851562 49.5 49.5 48.851562 49.5 48 C 49.5 47.148438 48.851562 46.5 48 46.5 Z M 30.5 46.5 "/>
</g>
</svg>
