<svg xmlns="http://www.w3.org/2000/svg" x="0px" y="0px"
width="30" height="30"
viewBox="0 0 172 172"
style=" fill:#000000;"><g fill="none" fill-rule="nonzero" stroke="none" stroke-width="1" stroke-linecap="butt" stroke-linejoin="miter" stroke-miterlimit="10" stroke-dasharray="" stroke-dashoffset="0" font-family="none" font-weight="none" font-size="none" text-anchor="none" style="mix-blend-mode: normal"><path d="M0,172v-172h172v172z" fill="none"></path><g fill="#ffffff"><path d="M36.28125,6.71875c-11.825,0 -21.5,9.675 -21.5,21.5c0,11.825 9.675,21.5 21.5,21.5c11.825,0 21.5,-9.675 21.5,-21.5c0,-11.825 -9.675,-21.5 -21.5,-21.5zM36.28125,14.78125c7.39063,0 13.4375,6.04688 13.4375,13.4375c0,7.39063 -6.04687,13.4375 -13.4375,13.4375c-7.39062,0 -13.4375,-6.04687 -13.4375,-13.4375c0,-7.39062 6.04688,-13.4375 13.4375,-13.4375zM72.5625,16.125c-2.28437,0 -4.03125,1.74687 -4.03125,4.03125c0,2.28438 1.74688,4.03125 4.03125,4.03125h67.1875c2.28438,0 4.03125,-1.74687 4.03125,-4.03125c0,-2.28438 -1.74687,-4.03125 -4.03125,-4.03125zM72.5625,32.25c-2.28437,0 -4.03125,1.74688 -4.03125,4.03125c0,2.28437 1.74688,4.03125 4.03125,4.03125h26.875c2.28437,0 4.03125,-1.74688 4.03125,-4.03125c0,-2.28437 -1.74688,-4.03125 -4.03125,-4.03125zM36.28125,64.5c-11.825,0 -21.5,9.675 -21.5,21.5c0,11.825 9.675,21.5 21.5,21.5c11.825,0 21.5,-9.675 21.5,-21.5c0,-11.825 -9.675,-21.5 -21.5,-21.5zM72.5625,73.90625c-2.28437,0 -4.03125,1.74688 -4.03125,4.03125c0,2.28437 1.74688,4.03125 4.03125,4.03125h67.1875c2.28438,0 4.03125,-1.74688 4.03125,-4.03125c0,-2.28437 -1.74687,-4.03125 -4.03125,-4.03125zM72.5625,90.03125c-2.28437,0 -4.03125,1.74688 -4.03125,4.03125c0,2.28437 1.74688,4.03125 4.03125,4.03125h26.875c2.28437,0 4.03125,-1.74688 4.03125,-4.03125c0,-2.28437 -1.74688,-4.03125 -4.03125,-4.03125zM36.28125,122.28125c-11.825,0 -21.5,9.675 -21.5,21.5c0,11.825 9.675,21.5 21.5,21.5c11.825,0 21.5,-9.675 21.5,-21.5c0,-11.825 -9.675,-21.5 -21.5,-21.5zM72.5625,131.6875c-2.28437,0 -4.03125,1.74687 -4.03125,4.03125c0,2.28438 1.74688,4.03125 4.03125,4.03125h67.1875c2.28438,0 4.03125,-1.74687 4.03125,-4.03125c0,-2.28438 -1.74687,-4.03125 -4.03125,-4.03125zM72.5625,147.8125c-2.28437,0 -4.03125,1.74687 -4.03125,4.03125c0,2.28438 1.74688,4.03125 4.03125,4.03125h26.875c2.28437,0 4.03125,-1.74687 4.03125,-4.03125c0,-2.28438 -1.74688,-4.03125 -4.03125,-4.03125z"></path></g></g></svg>