<svg xmlns="http://www.w3.org/2000/svg" x="0px" y="0px"
width="128" height="128"
viewBox="0 0 172 172"
style=" fill:#000000;"><g fill="none" fill-rule="nonzero" stroke="none" stroke-width="1" stroke-linecap="butt" stroke-linejoin="miter" stroke-miterlimit="10" stroke-dasharray="" stroke-dashoffset="0" font-family="none" font-weight="none" font-size="none" text-anchor="none" style="mix-blend-mode: normal"><path d="M0,172v-172h172v172z" fill="none"></path><g fill="#ffffff"><path d="M55.76563,8.0625c-29.96562,0 -54.42187,24.45625 -54.42187,54.42188c0,28.89063 22.575,52.54115 51.0625,54.28803v22.9776c0,2.28438 1.74687,4.03125 4.03125,4.03125c2.28438,0 4.03125,-1.74687 4.03125,-4.03125v-22.84375h59.125v22.84375c0,2.28438 1.74688,4.03125 4.03125,4.03125c2.28437,0 4.03125,-1.74687 4.03125,-4.03125v-22.84375h8.73438c18.94688,0 34.26563,-15.31875 34.26563,-34.26562c0,-18.94687 -15.31875,-34.26562 -34.26562,-34.26562c-14.64688,0 -27.81458,9.4073 -32.5177,23.24792c-0.67187,2.15 0.40103,4.4328 2.55103,5.10468c2.15,0.67188 4.43542,-0.40365 5.1073,-2.55365c3.62812,-10.61563 13.57187,-17.73645 24.85938,-17.73645c14.5125,0 26.20313,11.69062 26.20313,26.20313c0,14.5125 -11.69063,26.20313 -26.20312,26.20313h-80.625c-25.53125,0 -46.35937,-20.82812 -46.35937,-46.35937c0,-25.53125 20.82813,-46.35937 46.35938,-46.35937c18.67812,0 35.33958,11.01875 42.59583,28.21875c0.94062,2.01563 3.22552,2.95572 5.24115,2.14947c2.01563,-0.80625 2.95573,-3.22552 2.14948,-5.24115c-8.46563,-20.15625 -28.08333,-33.18958 -49.98645,-33.18958zM90.03125,129c-2.28437,0 -4.03125,1.74687 -4.03125,4.03125v26.875c0,2.28438 1.74688,4.03125 4.03125,4.03125c2.28437,0 4.03125,-1.74687 4.03125,-4.03125v-26.875c0,-2.28438 -1.74688,-4.03125 -4.03125,-4.03125z"></path></g></g></svg>