<svg xmlns="http://www.w3.org/2000/svg" x="0px" y="0px"
width="128" height="128"
viewBox="0 0 172 172"
style=" fill:#000000;"><g fill="none" fill-rule="nonzero" stroke="none" stroke-width="1" stroke-linecap="butt" stroke-linejoin="miter" stroke-miterlimit="10" stroke-dasharray="" stroke-dashoffset="0" font-family="none" font-weight="none" font-size="none" text-anchor="none" style="mix-blend-mode: normal"><path d="M0,172v-172h172v172z" fill="none"></path><g fill="#ffffff"><path d="M55.76563,8.0625c-29.96562,0 -54.42187,24.45625 -54.42187,54.42188c0,29.96563 24.45625,54.42188 54.42188,54.42188c2.28438,0 4.03125,-1.74688 4.03125,-4.03125c0,-2.28437 -1.74687,-4.03125 -4.03125,-4.03125c-25.53125,0 -46.35937,-20.82812 -46.35937,-46.35937c0,-25.53125 20.82813,-46.35937 46.35938,-46.35937c18.67812,0 35.33958,11.01875 42.59583,28.21875c0.94062,2.01563 3.22552,2.95572 5.24115,2.14947c2.01563,-0.80625 2.95573,-3.22552 2.14948,-5.24115c-8.46563,-20.15625 -28.08333,-33.18958 -49.98645,-33.18958zM136.39063,48.375c-14.64688,0 -27.81458,9.4073 -32.5177,23.24792c-0.67187,2.15 0.40103,4.4328 2.55103,5.10468c2.15,0.67188 4.43542,-0.40365 5.1073,-2.55365c3.62812,-10.61563 13.57187,-17.73645 24.85938,-17.73645c14.5125,0 26.20313,11.69062 26.20313,26.20313c0,14.5125 -11.69063,26.20313 -26.20312,26.20313c-2.28438,0 -4.03125,1.74688 -4.03125,4.03125c0,2.28437 1.74687,4.03125 4.03125,4.03125c18.94688,0 34.26563,-15.31875 34.26563,-34.26562c0,-18.94687 -15.31875,-34.26562 -34.26562,-34.26562zM84.2547,116.00342c-0.78105,-0.05984 -1.58048,0.09553 -2.28595,0.49866c-1.88125,1.075 -2.5526,3.63022 -1.4776,5.51147l7.92865,13.7052h-15.8573c-2.28437,0 -4.03125,1.74687 -4.03125,4.03125c0,2.28438 1.74688,4.03125 4.03125,4.03125h15.8573l-7.92865,13.7052c-1.075,1.88125 -0.40365,4.43647 1.4776,5.51147c0.67188,0.40312 1.34375,0.5354 2.01563,0.5354c1.34375,0 2.68697,-0.67187 3.49322,-2.01562l7.92865,-13.7052l7.92865,13.7052c0.80625,1.34375 2.14947,2.01563 3.49322,2.01563c0.67188,0 1.34375,-0.13228 2.01563,-0.5354c1.88125,-1.075 2.5526,-3.63022 1.4776,-5.51147l-7.92865,-13.7052h15.8573c2.28437,0 4.03125,-1.74687 4.03125,-4.03125c0,-2.28438 -1.74688,-4.03125 -4.03125,-4.03125h-15.8573l7.92865,-13.7052c1.075,-2.01562 0.40365,-4.43647 -1.4776,-5.51147c-1.88125,-1.075 -4.43385,-0.40103 -5.50885,1.48022l-7.92865,13.7052l-7.92865,-13.7052c-0.67187,-1.17578 -1.92114,-1.87915 -3.2229,-1.97888z"></path></g></g></svg>