<svg xmlns="http://www.w3.org/2000/svg" x="0px" y="0px"
width="128" height="128"
viewBox="0 0 172 172"
style=" fill:#000000;"><g fill="none" fill-rule="nonzero" stroke="none" stroke-width="1" stroke-linecap="butt" stroke-linejoin="miter" stroke-miterlimit="10" stroke-dasharray="" stroke-dashoffset="0" font-family="none" font-weight="none" font-size="none" text-anchor="none" style="mix-blend-mode: normal"><path d="M0,172v-172h172v172z" fill="none"></path><g id="Layer_1" fill="#ffffff"><path d="M48.375,72.5625h32.25c15.5875,0 28.21875,-12.63125 28.21875,-28.21875c0,-15.5875 -12.63125,-28.21875 -28.21875,-28.21875c-6.85313,0 -13.4375,2.41875 -18.54375,6.9875c-1.6125,1.47812 -1.88125,4.03125 -0.40312,5.64375c1.47812,1.6125 4.03125,1.88125 5.64375,0.40313c3.62813,-3.225 8.33125,-4.97188 13.30313,-4.97188c11.15313,0 20.15625,9.00312 20.15625,20.15625c0,11.15312 -9.00312,20.15625 -20.15625,20.15625h-32.25c-2.28438,0 -4.03125,1.74688 -4.03125,4.03125c0,2.28437 1.74687,4.03125 4.03125,4.03125zM40.3125,96.75h-34.9375c-2.28438,0 -4.03125,1.74688 -4.03125,4.03125c0,2.28437 1.74687,4.03125 4.03125,4.03125h34.9375c2.28437,0 4.03125,-1.74688 4.03125,-4.03125c0,-2.28437 -1.74688,-4.03125 -4.03125,-4.03125zM107.5,96.75h-34.9375c-2.28437,0 -4.03125,1.74688 -4.03125,4.03125c0,2.28437 1.74688,4.03125 4.03125,4.03125h34.9375c11.15313,0 20.15625,9.00312 20.15625,20.15625c0,11.15312 -9.00312,20.15625 -20.15625,20.15625c-4.70312,0 -9.27188,-1.6125 -12.9,-4.56875c-1.74688,-1.47813 -4.3,-1.20938 -5.64375,0.5375c-1.34375,1.74688 -1.20937,4.3 0.5375,5.64375c5.10625,4.16562 11.42188,6.45 18.00625,6.45c15.5875,0 28.21875,-12.63125 28.21875,-28.21875c0,-15.5875 -12.63125,-28.21875 -28.21875,-28.21875z"></path><path d="M142.4375,32.25c-2.28438,0 -4.03125,1.74688 -4.03125,4.03125c0,2.28437 1.74687,4.03125 4.03125,4.03125c11.15312,0 20.15625,9.00313 20.15625,20.15625c0,11.15313 -9.00313,20.15625 -20.15625,20.15625h-123.625c-2.28438,0 -4.03125,1.74688 -4.03125,4.03125c0,2.28437 1.74687,4.03125 4.03125,4.03125h123.625c15.5875,0 28.21875,-12.63125 28.21875,-28.21875c0,-15.5875 -12.63125,-28.21875 -28.21875,-28.21875zM32.25,64.5c-2.2264,0 -4.03125,1.80485 -4.03125,4.03125c0,2.2264 1.80485,4.03125 4.03125,4.03125c2.2264,0 4.03125,-1.80485 4.03125,-4.03125c0,-2.2264 -1.80485,-4.03125 -4.03125,-4.03125z"></path></g></g></svg>